PathFileType	4	(X/Y/Z)	T1_P2_NoVision_NoMovement_2_0-733.trc
DataRate	CameraRate	NumFrames	NumMarkers	Units	OrigDataRate	OrigDataStartFrame	OrigNumFrames
60	60	4	27	m	60	549	733
Frame#	Time	RHip			RKnee			RAnkle			RBigToe			RSmallToe			RHeel			LHip			LKnee			LAnkle			LBigToe			LSmallToe			LHeel			Neck			Head			Nose			RShoulder			RElbow			RWrist			RThumb			RIndex			RPinky			LShoulder			LElbow			LWrist			LThumb			LIndex			LPinky		
		X1	Y1	Z1	X2	Y2	Z2	X3	Y3	Z3	X4	Y4	Z4	X5	Y5	Z5	X6	Y6	Z6	X7	Y7	Z7	X8	Y8	Z8	X9	Y9	Z9	X10	Y10	Z10	X11	Y11	Z11	X12	Y12	Z12	X13	Y13	Z13	X14	Y14	Z14	X15	Y15	Z15	X16	Y16	Z16	X17	Y17	Z17	X18	Y18	Z18	X19	Y19	Z19	X20	Y20	Z20	X21	Y21	Z21	X22	Y22	Z22	X23	Y23	Z23	X24	Y24	Z24	X25	Y25	Z25	X26	Y26	Z26	X27	Y27	Z27
550	9.166666666666666	465.3320236266511	3624.303735706603	525.1313029227774	864.1909228426133	3681.6806737989764	543.5134590257179	1247.9949493363952	3750.7647669915095	618.7177800792841	1317.8956858770844	3610.4068519714056	556.1314338978095	1313.3410658884914	3674.6696821898895	520.8779202529468	1280.6510022609987	3733.3138603233874	625.8052629278138	459.70515248027226	3489.4629648590703	718.3424381283755	872.480700621886	3554.1104544062455	740.4702105142071	1239.3639223101509	3600.82806568467	722.8244517769375	1310.4107442532581	3496.3955555815055	670.8599707540573	1273.149324150647	3449.6956674924295	711.2291390343721	1267.3794844928375	3602.782163988501	703.0655690837715	-118.0736480468422	3522.6450265869003	622.5940474046263	-367.3848110409857	3475.0784740543118	598.5237580537546	-230.021986697822	3407.8676918120586	556.6672412479473	-31.806659775324018	3653.9511746755416	511.2093406358514	210.20173564529705	3631.7227136038314	418.55533552354717	368.7937765695646	3457.8751388994724	481.45449481570597	435.75799106222985	3436.3587380664208	567.4660943775804	449.32157188835487	3424.250204710831	587.9064314506188	473.07500725064244	3392.8044514613916	549.9454176886463	-23.359203128614205	3480.0199228780857	765.8980539050859	227.40709201448146	3353.259452441689	729.9816085214056	377.827575618453	3389.5716923330583	588.7954538743345	426.93756729280574	3414.975498957025	494.41377006071923	461.5585152354175	3437.374269658092	502.44160242535276	481.1863964562715	3386.821582104608	543.4336498876955
551	9.183333333333334	465.9219542360059	3623.3543324029215	524.5852239478901	863.7201368683292	3677.0773406572735	539.7820280578621	1249.0770938325736	3751.4561695813163	618.6561037259216	1317.7995361901014	3609.1029713115518	555.0907341065882	1311.6935927091065	3669.5878393428497	519.5644417799616	1282.7884170633672	3733.536855336144	625.130744014501	460.1923994999335	3491.8572883815314	719.0445406900351	873.4741114683547	3555.6624218262646	741.1816398990161	1240.6545797447407	3602.5570287426367	723.39809333887	1309.3849293595742	3491.3747628834235	669.5018892417077	1271.710411612466	3446.1364512810383	707.8152253894712	1267.308875708575	3602.117140029788	703.3205362057137	-118.04416576367893	3522.6438290611777	622.5841590585724	-366.8834477555791	3475.761736104528	599.3252031270276	-229.60144066984157	3407.5032188435075	556.4981404337705	-31.814355312905025	3654.488539535071	510.2131253681073	209.0328412651514	3631.25575391282	418.3423133696301	369.1497701685953	3457.272524307318	480.77603176315097	435.92281610847033	3432.6173657961217	567.4920104083467	448.69499323829996	3424.8849815352733	587.9725495593834	473.676171606092	3393.7278098492584	550.8661270943095	-22.92491246116507	3484.558115431138	767.1784806970197	227.91548283600497	3353.470133280791	729.4295962087632	377.69905537949876	3389.2342992364383	588.566087076227	426.9938154725117	3411.740703903102	493.6294072997836	459.7787357143487	3436.4535053892296	502.0404084666318	480.69491103176557	3389.453698533181	546.1471460697664
552	9.2	465.76438583255106	3623.636772429752	524.6021559886611	863.5266101925566	3672.299068475645	537.2881722181855	1253.3833795274618	3752.71358187854	619.023701901211	1317.628858209695	3606.6244249338497	553.1079714284075	1310.4223910747648	3662.430421995756	517.8059472342379	1285.430088071119	3734.6228719434803	624.5430228950761	461.26358383585347	3497.2884909885597	720.6983780966358	874.3133899477017	3556.564167868113	741.6151859138898	1242.4491301846638	3604.9782508381063	724.2189067339458	1308.3584991971054	3484.6869242289204	667.7241937410947	1271.942128922195	3445.2500881253927	706.6637060720437	1267.460242572506	3602.04552023545	703.7856542977429	-118.03468722084042	3522.646359323779	622.5672489273283	-365.55830089325434	3473.5728331021937	597.7256835920115	-228.4315529309506	3406.490250836357	555.9551864703078	-31.830873822992608	3654.944150881287	508.6920023635211	208.85109677705418	3631.108991224075	418.2588206637993	369.43014192248995	3458.4505128919564	481.6796860071794	436.3847564992063	3428.6302602686856	566.3551124219306	449.3808882856106	3426.33628749895	588.3006805838711	473.6846602065917	3397.300347999177	553.9158334947174	-22.74767507436835	3485.199741699115	766.3099816817166	228.8464580425748	3354.303211114894	729.1303386889692	377.6349670637072	3389.0954703661173	588.5073302851215	427.1127675672926	3409.780036921677	493.26470438286435	459.14371676561177	3437.712311599669	502.8525716160293	480.15903960918337	3392.165561761318	548.9336749766561
553	9.216666666666669	465.83835873289644	3624.258025829209	524.7850753831456	863.6857769308041	3667.258826756976	536.031931453455	1259.2804516649937	3753.2331719745807	619.3582158414647	1317.533753630476	3604.2554105552636	551.1879771013153	1309.8494029568913	3656.895199029933	516.5011239701336	1287.2165937452878	3735.7412265394514	623.8730415014102	462.4174983356886	3504.2570356852893	722.8113965873176	875.6784398135277	3556.5189276004003	741.6263850674015	1243.8268416610701	3607.109529208442	724.9950499412355	1307.497663456412	3479.832729077864	666.4004434981756	1273.1600302572147	3446.807152973252	707.883581756089	1267.6083716084472	3602.040774606583	703.9629780561131	-118.07341227932716	3522.6335999264124	622.5372534421418	-363.8108088571588	3470.04941598217	595.0129287113252	-227.18512118340686	3405.357892500559	555.3349623744325	-31.84672586363547	3655.2023692119055	507.4596235311363	209.48373947997788	3631.2703229343924	418.3023484665132	369.3792813022395	3460.679456478463	483.6538233779672	436.103296595316	3424.112778863354	563.3007480440534	449.7443048166496	3425.3163252281774	587.9537748720088	472.67543443735053	3402.549756012079	558.2640800525821	-23.702978365931994	3482.1681474551806	763.0149430084873	229.06142244655078	3355.7512078314703	730.0500062265287	377.6211292180231	3389.0867820218186	588.561475077427	426.8837318626281	3409.675961930414	493.4543751870701	459.7416425334121	3440.5756811010065	503.9746285434144	479.5657333284805	3392.241374846228	549.149027541464
